# Blender 3.6.12
# www.blender.org
mtllib airquakejet.mtl
o plane1
v 21.931999 1.768002 1.684999
v 21.931999 2.271999 0.040001
v 21.931999 1.768002 -1.369999
v 21.931999 -0.247999 2.625000
v 21.931999 -0.247999 -2.544998
v 21.931999 -1.255999 1.684999
v 21.931999 -1.255999 -1.369999
v 14.875999 3.279999 0.040001
v 7.820000 2.776001 -3.014999
v 7.820000 -0.247999 4.035000
v 7.820000 -0.247999 -3.954998
v 7.820000 -1.760000 3.094999
v 7.820000 -1.760000 -3.014999
v -0.243999 2.776001 3.094999
v -0.243999 2.776001 -3.014999
v -16.119999 3.279999 1.684999
v -16.119999 3.279999 -1.369999
v -16.119999 2.776001 3.094999
v -16.119999 2.776001 -3.014999
v -24.184000 3.279999 -1.369999
v -28.216000 -4.028000 0.040001
v 1.771999 1.264000 3.565001
v 1.771999 1.264000 -3.485001
v -16.119999 1.264000 3.565001
v -16.119999 1.264000 -3.485001
v -24.184000 1.264000 3.565001
v -24.184000 1.264000 -3.485001
v -2.260000 -3.271999 3.094999
v -16.119999 -0.247999 4.035000
v -2.260000 -3.271999 -3.014999
v -16.119999 -0.247999 -3.954998
v 5.804001 -4.532000 1.684999
v -2.260000 -4.028000 0.040001
v 5.804001 -4.532000 -1.369999
v -0.243999 0.760002 5.680000
v 3.788002 -0.247999 6.150000
v -8.056000 0.760002 5.680000
v -24.184000 0.760002 5.680000
v -28.216000 -0.247999 6.150000
v -12.087999 -0.247999 6.150000
v -18.136000 -0.247999 6.150000
v -0.243999 0.760002 -5.365002
v 3.788002 -0.247999 -5.834999
v -8.056000 0.760002 -5.365002
v -24.184000 0.760002 -5.365002
v -28.216000 -0.247999 -5.834999
v -12.087999 -0.247999 -5.834999
v -18.136000 -0.247999 -5.834999
v -4.275999 -0.247999 28.005001
v -12.087999 -0.247999 28.005001
v -4.275999 -0.247999 -27.924999
v -12.087999 -0.247999 -27.924999
v -26.200001 -0.247999 16.020000
v -30.232000 -0.247999 16.020000
v -30.232000 -0.247999 8.030001
v -26.200001 -0.247999 -15.939999
v -30.232000 -0.247999 -15.939999
v -30.232000 -0.247999 -7.950001
v -8.056000 3.784000 0.040001
v -20.152000 6.808002 0.510000
v -16.119999 6.808002 0.040001
v -24.184000 3.279999 1.684999
v -26.200001 6.808002 0.510000
v -28.216000 3.784000 0.040001
v -28.216000 5.799999 0.040001
v -32.248001 6.808002 0.040001
v -30.232000 14.872002 0.040001
v -24.184000 14.872002 0.040001
v -20.152000 6.808002 -0.430000
v -26.200001 6.808002 -0.430000
v 7.820000 2.776001 3.094999
v 9.836002 5.799999 0.980000
v 9.836002 5.799999 -0.900002
v 5.804001 5.799999 -0.900002
v 5.804001 5.799999 0.980000
v -0.243999 3.784000 0.040001
v -28.216000 2.776001 -3.014999
v -32.248001 1.768002 -1.840000
v -28.216000 -0.247999 4.035000
v -32.248001 -0.247999 -3.014999
v -28.216000 -0.247999 -3.954998
v -28.216000 -3.271999 3.094999
v -28.216000 -3.271999 -3.014999
v -28.216000 3.784000 0.040001
v -28.216000 2.776001 3.094999
v 31.760002 -0.247999 0.040001
v 21.931999 1.768002 1.684999
v 21.931999 2.271999 0.040001
v 21.931999 1.768002 -1.369999
v 21.931999 -0.247999 2.625000
v 21.931999 -0.247999 -2.544998
v 21.931999 -1.255999 1.684999
v 21.931999 -1.255999 -1.369999
v -32.248001 -0.247999 3.094999
v -32.248001 -2.264000 2.155001
v -32.248001 -2.264000 -1.840000
v -32.248001 -3.271999 0.040001
v -32.500000 -0.247999 0.040001
v -32.248001 1.768002 2.155001
v -32.248001 2.776001 0.040001
vn 1.0000 -0.0000 -0.0000
vn 0.1353 0.9473 0.2902
vn 0.1333 0.9332 -0.3336
vn 0.1045 0.9140 0.3920
vn 0.1124 0.9056 -0.4089
vn 0.1158 0.2948 0.9485
vn 0.0902 0.4209 0.9026
vn 0.1314 0.2943 -0.9467
vn 0.0860 0.5017 -0.8608
vn 0.0845 -0.5261 0.8462
vn 0.0970 -0.6788 0.7279
vn 0.0845 -0.5261 -0.8462
vn 0.1025 -0.7550 -0.6477
vn 0.0357 -0.9994 -0.0000
vn -0.0000 0.9496 0.3133
vn -0.0000 0.9496 -0.3133
vn 0.0030 0.9519 0.3064
vn -0.0031 0.9472 -0.3206
vn -0.0000 0.9417 0.3366
vn -0.0000 0.9561 -0.2929
vn -0.0091 0.9496 0.3133
vn 0.0091 0.9496 -0.3133
vn -0.0000 0.2968 0.9549
vn -0.0000 0.2968 -0.9549
vn 0.0789 -0.5263 0.8466
vn -0.0000 -0.2968 0.9549
vn 0.0789 -0.5263 -0.8466
vn -0.0000 -0.2968 -0.9549
vn 0.0742 -0.4945 0.8660
vn -0.1090 -0.9649 0.2388
vn 0.0829 -0.5525 -0.8294
vn -0.1021 -0.9656 -0.2390
vn -0.0624 -0.9981 -0.0000
vn 0.8087 -0.5882 -0.0000
vn -0.0000 -0.9707 0.2402
vn -0.0000 -0.9707 -0.2402
vn 0.1933 0.8968 0.3979
vn 0.1872 0.9152 0.3569
vn -0.0000 0.9728 0.2318
vn -0.3511 0.9363 -0.0000
vn -0.2113 0.9508 0.2266
vn -0.0000 -1.0000 -0.0000
vn -0.0000 0.4226 0.9063
vn 0.1863 0.8806 -0.4358
vn 0.1808 0.9039 -0.3877
vn -0.0000 0.9659 -0.2589
vn -0.2067 0.9450 -0.2533
vn -0.0000 0.4226 -0.9063
vn 0.2322 0.9689 0.0857
vn -0.0000 0.9990 0.0451
vn -0.2425 0.9701 -0.0000
vn 0.2323 0.9689 -0.0848
vn -0.0000 0.9990 -0.0446
vn 0.1536 0.9801 0.1255
vn -0.0000 0.9953 0.0970
vn -0.1644 0.9864 -0.0000
vn -0.2635 0.9223 -0.2826
vn 0.1539 0.9804 -0.1228
vn -0.0000 0.9955 -0.0949
vn -0.2622 0.9321 0.2499
vn 0.1106 0.2950 0.9491
vn 0.1495 0.4620 0.8742
vn -0.0000 0.3160 0.9488
vn -0.2270 -0.0000 0.9739
vn -0.3652 0.0996 0.9256
vn -0.0740 -0.2960 0.9523
vn -0.0775 0.0194 0.9968
vn -0.0000 0.0582 0.9983
vn 0.1106 0.2950 -0.9491
vn 0.1342 0.3954 -0.9086
vn -0.0000 0.2575 -0.9663
vn -0.2270 -0.0000 -0.9739
vn -0.3218 0.0677 -0.9444
vn -0.0740 -0.2960 -0.9523
vn -0.0775 0.0194 -0.9968
vn -0.0000 0.0582 -0.9983
vn 0.1150 0.1150 0.9867
vn 0.1150 0.1150 -0.9867
vn -0.0712 0.9975 -0.0000
vn 0.1240 0.9923 -0.0000
vn -1.0000 -0.0000 -0.0000
vn 0.4472 0.8944 -0.0000
vn -0.0000 1.0000 -0.0000
vn -0.3162 0.9487 -0.0000
vn 0.3464 0.3715 0.8614
vn -0.0000 0.5731 0.8195
vn -0.2748 0.4213 0.8643
vn 0.3464 0.3715 -0.8614
vn -0.0000 0.5731 -0.8195
vn -0.2748 0.4213 -0.8643
vn -0.3021 0.4028 0.8640
vn -0.2173 0.2897 0.9321
vn -0.3533 0.4711 -0.8082
vn -0.2173 0.2897 -0.9321
vn -0.2067 -0.4135 0.8867
vn -0.2846 -0.2846 0.9154
vn -0.1975 -0.4936 -0.8470
vn -0.3324 -0.2800 -0.9006
vn -0.3099 -0.8583 0.4090
vn -0.1791 -0.9550 0.2363
vn -0.3371 -0.8297 -0.4449
vn -0.1791 -0.9550 -0.2363
vn -0.2201 0.8806 0.4197
vn -0.2965 0.9069 0.2992
vn -0.2152 0.8607 -0.4615
vn -0.3123 0.9022 -0.2977
vn 0.2381 0.9286 0.2845
vn 0.2347 0.9153 -0.3272
vn 0.2319 0.4111 0.8816
vn 0.2216 0.4910 -0.8425
vn 0.1889 -0.6697 0.7182
vn 0.1688 -0.7481 -0.6418
vn 0.1020 -0.9948 -0.0000
vn -0.9958 0.0830 0.0396
vn -0.9956 0.0830 -0.0445
vn -0.9959 0.0383 0.0821
vn -0.9955 0.0479 -0.0821
vn -0.9959 -0.0383 0.0821
vn -0.9955 -0.0479 -0.0821
vn -0.9958 -0.0830 0.0396
vn -0.9956 -0.0830 -0.0445
vt 0.000000 0.000000
vt 0.267857 0.262048
vt 0.241883 0.153614
vt 0.267857 0.153614
vt 0.293831 0.153614
vt 0.241883 0.364458
vt 0.293831 0.364458
vt 0.215909 0.364458
vt 0.215909 0.153614
vt 0.319805 0.364458
vt 0.319805 0.153614
vt 0.715909 0.364458
vt 0.728896 0.364458
vt 0.715909 0.153614
vt 0.728896 0.153614
vt 0.806818 0.364458
vt 0.819805 0.364458
vt 0.819805 0.153614
vt 0.806818 0.153614
vt 0.241883 0.484940
vt 0.267857 0.484940
vt 0.293831 0.484940
vt 0.267857 0.599398
vt 0.254870 0.725904
vt 0.280844 0.725904
vt 0.241883 0.725904
vt 0.293831 0.725904
vt 0.241883 0.906627
vt 0.254870 0.846386
vt 0.267857 0.906627
vt 0.293831 0.906627
vt 0.280844 0.846386
vt 0.228896 0.454819
vt 0.306818 0.454819
vt 0.228896 0.725904
vt 0.306818 0.725904
vt 0.228896 0.840361
vt 0.215909 0.906627
vt 0.306818 0.840361
vt 0.319805 0.906627
vt 0.741883 0.515060
vt 0.715909 0.725904
vt 0.715909 0.906627
vt 0.741883 0.906627
vt 0.793831 0.515060
vt 0.819805 0.725904
vt 0.793831 0.906627
vt 0.819805 0.906627
vt 0.748377 0.400602
vt 0.767857 0.515060
vt 0.787338 0.400602
vt 0.767857 0.906627
vt 0.202922 0.478916
vt 0.196429 0.436747
vt 0.202922 0.605422
vt 0.202922 0.840361
vt 0.196429 0.906627
vt 0.696429 0.436747
vt 0.696429 0.665663
vt 0.696429 0.756024
vt 0.696429 0.906627
vt 0.196429 0.756024
vt 0.196429 0.665663
vt 0.332792 0.478916
vt 0.339286 0.436747
vt 0.332792 0.605422
vt 0.332792 0.840361
vt 0.339286 0.906627
vt 0.839286 0.436747
vt 0.839286 0.665663
vt 0.839286 0.756024
vt 0.839286 0.906627
vt 0.339286 0.756024
vt 0.339286 0.665663
vt 0.037338 0.545181
vt 0.037338 0.665663
vt 0.537338 0.545181
vt 0.537338 0.665663
vt 0.498377 0.545181
vt 0.498377 0.665663
vt 0.998377 0.665663
vt 0.998377 0.545181
vt 0.125000 0.888554
vt 0.125000 0.936747
vt 0.176948 0.936747
vt 0.625000 0.888554
vt 0.625000 0.936747
vt 0.676948 0.936747
vt 0.410714 0.888554
vt 0.410714 0.936747
vt 0.358766 0.936747
vt 0.910714 0.936747
vt 0.910714 0.888554
vt 0.858766 0.936747
vt 0.134740 0.063253
vt 0.102273 0.063253
vt 0.206169 0.015060
vt 0.134740 0.009036
vt 0.053571 0.063253
vt 0.069805 0.009036
vt 0.037338 0.045181
vt 0.037338 0.015060
vt 0.008117 0.063253
vt 0.021104 0.183735
vt 0.069805 0.183735
vt 0.602273 0.063253
vt 0.634740 0.063253
vt 0.706169 0.015060
vt 0.641234 0.009036
vt 0.569805 0.009036
vt 0.553571 0.063253
vt 0.537338 0.015060
vt 0.537338 0.045181
vt 0.508117 0.063253
vt 0.521104 0.183735
vt 0.569805 0.183735
vt 0.274351 0.334337
vt 0.261364 0.334337
vt 0.274351 0.406626
vt 0.261364 0.406626
vt 0.241883 0.954819
vt 0.215909 0.954819
vt 0.319805 0.954819
vt 0.293831 0.954819
vt 0.715909 0.954819
vt 0.741883 0.954819
vt 0.793831 0.954819
vt 0.819805 0.954819
vt 0.767857 0.954819
vt 0.267857 0.954819
vt 0.267857 0.009036
vt 0.767857 0.009036
vt 0.267857 0.990964
vt 0.767857 0.990964
s 0
usemtl C:\Users\iBuyPower\3D_Objects\progs\plane1
f 1/1/1 6/1/1 2/1/1
f 4/1/1 6/1/1 1/1/1
f 3/1/1 2/1/1 7/1/1
f 2/1/1 6/1/1 7/1/1
f 5/1/1 3/1/1 7/1/1
f 8/2/2 1/3/2 2/4/2
f 3/5/3 8/2/3 2/4/3
f 71/6/4 1/3/4 8/2/4
f 3/5/5 9/7/5 8/2/5
f 71/6/6 10/8/6 1/3/6
f 10/8/7 4/9/7 1/3/7
f 11/10/8 9/7/8 3/5/8
f 5/11/9 11/10/9 3/5/9
f 10/12/10 12/13/10 4/14/10
f 12/13/11 6/15/11 4/14/11
f 13/16/12 11/17/12 5/18/12
f 7/19/13 13/16/13 5/18/13
f 12/13/14 13/16/14 6/15/14
f 13/16/14 7/19/14 6/15/14
f 14/20/15 71/6/15 76/21/15
f 9/7/16 15/22/16 76/21/16
f 59/23/15 14/20/15 76/21/15
f 15/22/16 59/23/16 76/21/16
f 16/24/17 14/20/17 59/23/17
f 15/22/18 17/25/18 59/23/18
f 16/24/19 18/26/19 14/20/19
f 19/27/20 17/25/20 15/22/20
f 18/26/19 16/24/19 85/28/19
f 16/24/19 62/29/19 85/28/19
f 62/29/21 64/30/21 85/28/21
f 17/25/20 19/27/20 77/31/20
f 20/32/20 17/25/20 77/31/20
f 64/30/22 20/32/22 77/31/22
f 14/20/23 22/33/23 71/6/23
f 22/33/23 10/8/23 71/6/23
f 23/34/24 15/22/24 9/7/24
f 11/10/24 23/34/24 9/7/24
f 14/20/23 18/26/23 22/33/23
f 18/26/23 24/35/23 22/33/23
f 19/27/24 15/22/24 23/34/24
f 25/36/24 19/27/24 23/34/24
f 18/26/23 26/37/23 24/35/23
f 85/28/23 26/37/23 18/26/23
f 79/38/23 26/37/23 85/28/23
f 27/39/24 19/27/24 25/36/24
f 27/39/24 77/31/24 19/27/24
f 27/39/24 81/40/24 77/31/24
f 28/41/25 12/13/25 10/12/25
f 29/42/26 28/41/26 10/12/26
f 79/43/26 82/44/26 29/42/26
f 82/44/26 28/41/26 29/42/26
f 13/16/27 30/45/27 11/17/27
f 30/45/28 31/46/28 11/17/28
f 83/47/28 81/48/28 31/46/28
f 30/45/28 83/47/28 31/46/28
f 28/41/29 32/49/29 12/13/29
f 28/41/30 33/50/30 32/49/30
f 34/51/31 30/45/31 13/16/31
f 33/50/32 30/45/32 34/51/32
f 33/50/33 34/51/33 32/49/33
f 32/49/34 34/51/34 12/13/34
f 34/51/34 13/16/34 12/13/34
f 33/50/35 28/41/35 21/52/35
f 28/41/35 82/44/35 21/52/35
f 30/45/36 33/50/36 21/52/36
f 83/47/36 30/45/36 21/52/36
f 22/33/37 35/53/37 10/8/37
f 35/53/38 36/54/38 10/8/38
f 37/55/39 35/53/39 22/33/39
f 24/35/39 37/55/39 22/33/39
f 38/56/39 37/55/39 24/35/39
f 26/37/39 38/56/39 24/35/39
f 79/38/40 39/57/40 26/37/40
f 39/57/41 38/56/41 26/37/41
f 36/58/42 29/42/42 10/12/42
f 40/59/42 29/42/42 36/58/42
f 41/60/42 29/42/42 40/59/42
f 39/61/42 29/42/42 41/60/42
f 79/43/42 29/42/42 39/61/42
f 38/56/43 41/62/43 37/55/43
f 41/62/43 40/63/43 37/55/43
f 42/64/44 23/34/44 11/10/44
f 43/65/45 42/64/45 11/10/45
f 42/64/46 44/66/46 23/34/46
f 44/66/46 25/36/46 23/34/46
f 44/66/46 45/67/46 25/36/46
f 45/67/46 27/39/46 25/36/46
f 46/68/40 81/40/40 27/39/40
f 45/67/47 46/68/47 27/39/47
f 31/46/42 43/69/42 11/17/42
f 31/46/42 47/70/42 43/69/42
f 31/46/42 48/71/42 47/70/42
f 31/46/42 46/72/42 48/71/42
f 31/46/42 81/48/42 46/72/42
f 48/73/48 45/67/48 44/66/48
f 47/74/48 48/73/48 44/66/48
f 35/53/49 49/75/49 36/54/49
f 37/55/50 50/76/50 35/53/50
f 50/76/50 49/75/50 35/53/50
f 40/63/51 50/76/51 37/55/51
f 49/77/42 50/78/42 36/58/42
f 50/78/42 40/59/42 36/58/42
f 51/79/52 42/64/52 43/65/52
f 52/80/53 44/66/53 42/64/53
f 51/79/53 52/80/53 42/64/53
f 52/80/51 47/74/51 44/66/51
f 52/81/42 51/82/42 43/69/42
f 47/70/42 52/81/42 43/69/42
f 53/83/54 41/62/54 38/56/54
f 54/84/55 53/83/55 38/56/55
f 55/85/56 54/84/56 38/56/56
f 39/57/57 55/85/57 38/56/57
f 53/86/42 54/87/42 41/60/42
f 54/87/42 55/88/42 41/60/42
f 55/88/42 39/61/42 41/60/42
f 48/73/58 56/89/58 45/67/58
f 56/89/59 57/90/59 45/67/59
f 57/90/56 58/91/56 45/67/56
f 58/91/60 46/68/60 45/67/60
f 57/92/42 56/93/42 48/71/42
f 58/94/42 57/92/42 48/71/42
f 46/72/42 58/94/42 48/71/42
f 61/95/61 60/96/61 59/97/61
f 60/96/62 16/98/62 59/97/62
f 63/99/63 62/100/63 60/96/63
f 62/100/63 16/98/63 60/96/63
f 65/101/64 64/102/64 63/99/64
f 64/102/65 62/100/65 63/99/65
f 66/103/66 65/101/66 63/99/66
f 67/104/67 66/103/67 63/99/67
f 68/105/68 67/104/68 63/99/68
f 60/96/68 68/105/68 63/99/68
f 69/106/69 61/107/69 59/108/69
f 17/109/70 69/106/70 59/108/70
f 20/110/71 70/111/71 69/106/71
f 17/109/71 20/110/71 69/106/71
f 64/112/72 65/113/72 70/111/72
f 20/110/73 64/112/73 70/111/73
f 65/113/74 66/114/74 70/111/74
f 66/114/75 67/115/75 70/111/75
f 67/115/76 68/116/76 70/111/76
f 68/116/76 69/106/76 70/111/76
f 61/95/77 68/105/77 60/96/77
f 68/116/78 61/107/78 69/106/78
f 71/1/79 8/1/79 9/1/79
f 76/1/80 71/1/80 9/1/80
f 82/44/81 79/38/81 85/28/81 64/1/81 77/31/81 81/48/81 83/47/81 21/52/81
f 83/1/1 81/1/1 21/1/1
f 81/1/1 64/1/1 21/1/1
f 82/1/1 21/1/1 79/1/1
f 77/1/1 64/1/1 81/1/1
f 64/1/1 79/1/1 21/1/1
f 64/1/1 85/1/1 79/1/1
f 73/117/82 72/118/82 8/2/82
f 73/117/83 74/119/83 72/118/83
f 74/119/83 75/120/83 72/118/83
f 74/119/84 76/21/84 75/120/84
f 72/118/85 71/6/85 8/2/85
f 72/118/86 75/120/86 71/6/86
f 75/120/87 76/21/87 71/6/87
f 9/7/88 73/117/88 8/2/88
f 74/119/89 73/117/89 9/7/89
f 76/21/90 74/119/90 9/7/90
f 99/121/91 94/122/91 85/28/91
f 94/122/92 79/38/92 85/28/92
f 80/123/93 78/124/93 77/31/93
f 81/40/94 80/123/94 77/31/94
f 94/125/95 95/126/95 79/43/95
f 95/126/96 82/44/96 79/43/96
f 96/127/97 80/128/97 81/48/97
f 83/47/98 96/127/98 81/48/98
f 95/126/99 97/129/99 82/44/99
f 97/129/100 21/52/100 82/44/100
f 97/129/101 96/127/101 83/47/101
f 21/52/102 97/129/102 83/47/102
f 100/130/103 99/121/103 64/30/103
f 99/121/104 85/28/104 64/30/104
f 78/124/105 100/130/105 64/30/105
f 77/31/106 78/124/106 64/30/106
f 86/131/107 88/4/107 87/3/107
f 86/131/108 89/5/108 88/4/108
f 86/131/109 87/3/109 90/9/109
f 86/131/110 91/11/110 89/5/110
f 86/132/111 90/14/111 92/15/111
f 86/132/112 93/19/112 91/18/112
f 86/132/113 92/15/113 93/19/113
f 92/1/81 88/1/81 93/1/81
f 92/1/81 87/1/81 88/1/81
f 89/1/81 91/1/81 93/1/81
f 88/1/81 89/1/81 93/1/81
f 92/1/81 90/1/81 87/1/81
f 99/121/114 100/130/114 98/133/114
f 100/130/115 78/124/115 98/133/115
f 94/122/116 99/121/116 98/133/116
f 78/124/117 80/123/117 98/133/117
f 95/126/118 94/125/118 98/134/118
f 80/128/119 96/127/119 98/134/119
f 97/129/120 95/126/120 98/134/120
f 96/127/121 97/129/121 98/134/121
